<svg width="335" height="49" viewBox="0 0 335 49" fill="none" xmlns="http://www.w3.org/2000/svg">
<path d="M81.588 20.634V28.437H97.32V40.268H65.855V28.437H58.052V48.071H105.123V20.634H81.588ZM58.052 1V20.634H65.855V8.80301H97.32V14.719H105.123V1H58.052Z" fill="black"/>
<path d="M1 1V48.071H44.169H48.071V28.437H40.268V40.268H8.80304V8.80301H40.268V20.634H48.071V1H1Z" fill="black"/>
<mask id="mask0_1_2" style="mask-type:alpha" maskUnits="userSpaceOnUse" x="1" y="1" width="334" height="48">
<path d="M334.573 1H1V48.071H334.573V1Z" fill="white"/>
</mask>
<g mask="url(#mask0_1_2)">
<path d="M331.648 34.852V14.452C331.648 13.379 331.303 12.506 330.627 11.848C329.945 11.183 329.061 10.846 327.983 10.846H323.915V38.501H327.81C328.953 38.501 329.873 38.172 330.584 37.521C331.289 36.877 331.648 35.983 331.648 34.852ZM334.573 35.145C334.573 36.877 333.998 38.301 332.855 39.41C331.712 40.519 330.268 41.077 328.529 41.077H320.99V8.27103H328.529C330.283 8.27103 331.727 8.82801 332.87 9.93701C334.005 11.047 334.573 12.471 334.573 14.202V35.145V35.145ZM312.596 31.203L309.706 13.429L306.803 31.203H312.596ZM317.037 41.077H314.134L312.969 33.779H306.422L305.265 41.077H302.448V40.991L308.319 8.18503H311.201L317.037 41.077V41.077ZM295.355 31.203L292.465 13.429L289.562 31.203H295.355ZM299.796 41.077H296.892L295.728 33.779H289.181L288.024 41.077H285.207V40.991L291.078 8.18503H293.96L299.796 41.077V41.077ZM283.072 10.846H277.977V41.077H275.052V10.846H269.913V8.27103H283.072V10.846ZM266.542 38.752C266.542 39.439 266.334 39.997 265.903 40.426C265.472 40.863 264.918 41.077 264.228 41.077H255.935C255.245 41.077 254.677 40.863 254.239 40.426C253.793 39.997 253.577 39.439 253.577 38.752V30.43H256.503V38.501H263.617V30.681L254.519 19.74C253.894 18.982 253.577 18.152 253.577 17.243V10.596C253.577 9.91601 253.793 9.35103 254.239 8.92203C254.677 8.48503 255.245 8.27103 255.935 8.27103H264.228C264.918 8.27103 265.472 8.48503 265.903 8.92203C266.334 9.35103 266.542 9.91601 266.542 10.596V18.23H263.617V10.846H256.503V17.766L265.637 28.706C266.241 29.436 266.542 30.251 266.542 31.16V38.752V38.752ZM248.482 38.752C248.482 39.439 248.259 39.997 247.828 40.426C247.39 40.863 246.829 41.077 246.146 41.077H237.487C236.803 41.077 236.243 40.863 235.804 40.426C235.367 39.997 235.15 39.439 235.15 38.752V10.596C235.15 9.91601 235.367 9.35103 235.804 8.92203C236.243 8.48503 236.803 8.27103 237.487 8.27103H246.146C246.829 8.27103 247.39 8.48503 247.828 8.92203C248.259 9.35103 248.482 9.91601 248.482 10.596V18.23H245.536V10.846H238.075V38.501H245.536V27.16H242.014V24.642H248.482V38.752V38.752Z" fill="black"/>
<path d="M231.185 40.848H225.384L216.714 26.215V40.848H211.45V8.04102H216.714V21.915L224.555 8.04102H230.311V8.27002L221.165 23.847L231.185 40.848V40.848ZM205.004 40.848H199.74V8.04102H205.004V40.848ZM194.427 12.377H188.626V40.848H183.385V12.377H177.584V8.04102H194.427V12.377V12.377ZM167.552 12.256H161.122V24.749H167.552V12.256ZM172.854 25.901C172.854 27.937 171.784 28.963 169.639 28.963H161.121V40.848H155.857V8.04102H169.639C171.787 8.04102 172.854 9.053 172.854 11.061V25.901V25.901ZM144.239 12.256H137.026V36.634H144.239V12.256ZM149.503 37.85C149.503 39.846 148.436 40.848 146.311 40.848H134.893C132.806 40.848 131.762 39.846 131.762 37.85V11.061C131.762 9.05 132.805 8.04102 134.893 8.04102H146.311C148.436 8.04102 149.503 9.051 149.503 11.061V37.85Z" fill="black"/>
</g>
</svg>
